<svg width="225" height="65" viewBox="0 0 225 65" fill="none" xmlns="http://www.w3.org/2000/svg">
<path fill-rule="evenodd" clip-rule="evenodd" d="M102.495 40.7656C100.93 41.1266 100.12 40.6451 100.12 39.6085C100.12 38.1882 101.589 37.6196 103.687 37.6196C104.61 37.6196 105.48 37.6993 105.48 37.6993C105.48 38.3074 104.159 40.3819 102.495 40.7656ZM104.087 26.5458C99.0777 26.5458 95.4811 28.388 95.4811 28.388V33.8034C95.4811 33.8034 99.452 31.5206 102.674 31.5206C105.244 31.5206 105.56 32.9074 105.443 34.0578C105.443 34.0578 104.701 33.8616 102.439 33.8616C97.1069 33.8616 94.4163 36.2851 94.4163 40.1703C94.4163 43.856 97.4404 45.3962 99.9891 45.3962C103.707 45.3962 105.342 42.8971 105.844 41.7118C106.193 40.8895 106.257 40.335 106.569 40.335C106.927 40.335 106.807 40.7328 106.789 41.5511C106.759 42.9848 106.827 44.0683 107.054 44.9817H111.985V36.113C111.985 30.5757 110.026 26.5458 104.087 26.5458Z" fill="#D0D0D0"/>
<path fill-rule="evenodd" clip-rule="evenodd" d="M136.539 35.98C136.539 34.3601 138.045 32.8849 140.809 32.8849C143.82 32.8849 146.244 34.3354 146.787 34.6648V28.3957C146.787 28.3957 144.873 26.5528 140.169 26.5528C135.21 26.5528 131.08 29.4544 131.08 35.7001C131.08 41.9451 134.828 45.4085 140.155 45.4085C144.317 45.4085 146.797 43.1217 146.797 43.1217V37.1679C146.013 37.6065 143.826 39.1246 140.839 39.1246C137.676 39.1246 136.539 37.6688 136.539 35.98ZM70.6394 26.9633C70.64 26.9673 70.9541 28.3146 70.5402 30.0765C70.3293 30.9724 69.9416 31.7345 70.4097 31.7345C70.7324 31.7345 70.7331 31.4666 71.153 30.5064C71.767 29.1028 73.0614 26.5481 76.0862 26.5481C78.9616 26.5481 80.3163 28.2952 80.765 29.9311C81.1065 31.174 80.8078 31.7345 81.2243 31.7345C81.5203 31.7345 81.6228 31.0896 81.9871 30.274C82.6413 28.8128 84.0643 26.5481 86.9424 26.5481C91.285 26.5481 92.943 29.684 92.943 34.3883V44.988H86.4917V35.2159C86.4917 33.5867 86.2286 32.0064 84.7433 32.0064C83.3672 32.0064 82.7257 34.4452 82.7257 36.0195V44.992H76.1558V35.2166C76.1558 33.132 75.8619 32.007 74.3967 32.007C73.1284 32.007 72.3885 34.251 72.3885 36.0202V44.9886H65.8447V26.9633H70.6394ZM114.132 26.9881C114.135 26.9894 115.249 27.6316 117.41 27.6316C119.576 27.6316 120.675 26.9881 120.675 26.9881V44.9927H114.132V26.9881ZM168.152 26.9881C168.154 26.9894 169.268 27.6316 171.43 27.6316C173.595 27.6316 174.695 26.9881 174.695 26.9881V44.9927H168.152V26.9881ZM129.337 21.5064V44.9927H122.793V21.5064H129.337ZM154.563 21.5064C154.564 21.5084 154.834 22.1834 154.834 24.191C154.834 27.1555 154.19 29.5682 153.885 30.4876C153.724 30.9744 153.436 31.7258 153.849 31.7392C154.087 31.7465 154.23 31.3876 154.522 30.7648C154.813 30.1414 156.254 26.5521 160.042 26.5521C165.259 26.5521 166.026 30.8244 166.026 35.451V44.992H159.482V35.0592C159.482 33.0222 159.055 32.0104 157.69 32.0104C156.041 32.0104 155.459 34.563 155.459 36.0242V44.992H148.915V21.5057L154.563 21.5064ZM181.7 26.9633C181.701 26.9673 182.015 28.3146 181.601 30.0765C181.39 30.9724 181.003 31.7345 181.471 31.7345C181.793 31.7345 181.794 31.4666 182.214 30.5064C182.827 29.1028 184.122 26.5481 187.147 26.5481C190.154 26.5481 191.347 28.3033 191.826 29.9311C192.147 31.022 191.869 31.7345 192.285 31.7345C192.581 31.7345 192.684 31.0896 193.048 30.274C193.701 28.8128 195.125 26.5481 198.003 26.5481C202.346 26.5481 204.004 29.684 204.004 34.3883V44.988H197.553V35.2159C197.553 33.5867 197.29 32.0064 195.804 32.0064C194.428 32.0064 193.786 34.4452 193.786 36.0195V44.992H187.216V35.2166C187.216 33.132 186.924 32.007 185.458 32.007C184.189 32.007 183.449 34.251 183.449 36.0202V44.9886H176.906V26.9633H181.7ZM117.384 21.3243C115.173 21.3243 113.379 22.4948 113.379 23.9385C113.379 25.3823 115.172 26.5528 117.384 26.5528C119.597 26.5528 121.39 25.3823 121.39 23.9385C121.39 22.4948 119.597 21.3243 117.384 21.3243ZM171.404 21.3243C169.192 21.3243 167.398 22.4948 167.398 23.9385C167.398 25.3823 169.191 26.5528 171.404 26.5528C173.616 26.5528 175.41 25.3823 175.41 23.9385C175.41 22.4948 173.616 21.3243 171.404 21.3243Z" fill="#D0D0D0"/>
<path fill-rule="evenodd" clip-rule="evenodd" d="M215.151 41.1085C213.651 41.1085 212.547 39.206 212.547 36.5549C212.547 33.9802 213.68 32.0027 215.099 32.0027C216.918 32.0027 217.695 33.6721 217.695 36.5549C217.695 39.5543 216.979 41.1085 215.151 41.1085ZM216.946 26.5418C213.584 26.5418 212.041 29.063 211.372 30.4994C210.929 31.4483 210.953 31.7275 210.628 31.7275C210.162 31.7275 210.549 30.9655 210.76 30.0695C211.175 28.305 210.86 26.957 210.86 26.957H206.068V49.9544H212.609V42.6634C213.382 43.9765 214.816 45.3794 217.026 45.3794C221.757 45.3794 224.138 41.377 224.138 35.9697C224.138 29.8411 221.288 26.5418 216.947 26.5418" fill="#D0D0D0"/>
<path fill-rule="evenodd" clip-rule="evenodd" d="M42.713 31.9834C43.1529 31.9312 43.5741 31.9285 43.9619 31.9834C44.1862 31.4692 44.2244 30.5832 44.0228 29.6183C43.7235 28.1839 43.3177 27.3161 42.4793 27.4513C41.6409 27.5866 41.6101 28.6259 41.9101 30.0596C42.0788 30.8665 42.3788 31.5562 42.713 31.9834Z" fill="#D0D0D0"/>
<path fill-rule="evenodd" clip-rule="evenodd" d="M35.5203 33.1185C36.1196 33.3817 36.4886 33.5565 36.6326 33.4038C36.7257 33.3087 36.6975 33.1272 36.5542 32.8935C36.2582 32.4107 35.6495 31.9206 35.0033 31.6453C33.6828 31.0768 32.1072 31.2657 30.8918 32.1389C30.4906 32.4328 30.1103 32.84 30.1645 33.0871C30.1819 33.1668 30.2422 33.227 30.3828 33.2471C30.7136 33.2846 31.8694 32.7007 33.2013 32.619C34.1409 32.5614 34.9203 32.8554 35.5203 33.1185Z" fill="#D0D0D0"/>
<path fill-rule="evenodd" clip-rule="evenodd" d="M34.3166 33.807C33.5351 33.9302 33.1045 34.188 32.828 34.4271C32.5923 34.6333 32.4463 34.8617 32.4476 35.0217C32.4483 35.0981 32.4811 35.1423 32.5072 35.1644C32.5427 35.1958 32.5849 35.2132 32.6358 35.2132C32.8119 35.2132 33.2077 35.0545 33.2077 35.0545C34.2945 34.6655 35.0117 34.713 35.7221 34.7934C36.1146 34.8376 36.3007 34.8617 36.3864 34.7271C36.4119 34.6882 36.4427 34.6045 36.3643 34.4773C36.1815 34.1807 35.392 33.6791 34.3166 33.807Z" fill="#D0D0D0"/>
<path fill-rule="evenodd" clip-rule="evenodd" d="M40.2858 36.3331C40.8162 36.5935 41.4001 36.4911 41.5903 36.1047C41.7805 35.7183 41.5046 35.1933 40.9742 34.9328C40.4439 34.6724 39.86 34.7748 39.6698 35.1612C39.4796 35.5482 39.7555 36.0726 40.2858 36.3331Z" fill="#D0D0D0"/>
<path fill-rule="evenodd" clip-rule="evenodd" d="M43.6961 33.354C43.2655 33.3467 42.908 33.8194 42.8979 34.4107C42.8879 35.002 43.2294 35.4861 43.66 35.4935C44.0905 35.5009 44.4481 35.0281 44.4582 34.4368C44.4682 33.8462 44.1267 33.3614 43.6961 33.354Z" fill="#D0D0D0"/>
<path fill-rule="evenodd" clip-rule="evenodd" d="M14.7544 44.0076C14.6472 43.873 14.4711 43.9139 14.3004 43.954C14.1812 43.9822 14.0466 44.013 13.8986 44.011C13.5818 44.0049 13.3133 43.8697 13.1627 43.638C12.9664 43.3366 12.9778 42.8873 13.1941 42.373L13.2952 42.1427C13.6408 41.3672 14.2187 40.0701 13.5698 38.834C13.081 37.9032 12.2841 37.3239 11.3258 37.2021C10.4057 37.0856 9.45888 37.4264 8.85486 38.0927C7.90196 39.144 7.75263 40.575 7.93678 41.0806C8.00442 41.2654 8.11022 41.317 8.18656 41.3277C8.34861 41.3491 8.58834 41.2313 8.73834 40.8275L8.7812 40.6962C8.84816 40.4826 8.97271 40.0849 9.17695 39.7661C9.42338 39.3817 9.80642 39.1172 10.2564 39.0201C10.7145 38.9217 11.1832 39.0094 11.5756 39.2666C12.2432 39.7032 12.5004 40.5215 12.2151 41.3016C12.0678 41.7054 11.8281 42.4775 11.881 43.1116C11.9881 44.3953 12.7776 44.911 13.4868 44.9659C14.1765 44.992 14.6586 44.6043 14.7805 44.3217C14.8522 44.1543 14.7919 44.0525 14.7524 44.009" fill="#D0D0D0"/>
<path fill-rule="evenodd" clip-rule="evenodd" d="M21.3146 20.4298C23.5646 17.8303 26.3335 15.5702 28.8145 14.3013C28.9003 14.2571 28.9913 14.3502 28.9451 14.4345C28.7482 14.7915 28.3686 15.5555 28.2487 16.1347C28.2299 16.2251 28.3284 16.2928 28.4047 16.2412C29.9482 15.1892 32.6328 14.0615 34.9879 13.9169C35.0891 13.9109 35.1379 14.0401 35.0576 14.1024C34.6993 14.3769 34.3076 14.7573 34.0217 15.1417C33.9728 15.2073 34.019 15.301 34.1007 15.3017C35.754 15.3138 38.085 15.8923 39.6044 16.7448C39.7069 16.8024 39.6339 17.0013 39.5187 16.9751C37.2199 16.4481 33.4572 16.0484 29.5478 17.0019C26.0583 17.853 23.3945 19.1675 21.4519 20.5805C21.3534 20.6521 21.2349 20.5215 21.3146 20.4298ZM32.519 45.6163L32.5197 45.6176L32.521 45.6203L32.519 45.6163ZM41.7962 46.7112C41.8631 46.683 41.9087 46.6074 41.9013 46.5317C41.8919 46.4386 41.8089 46.371 41.7158 46.3803C41.7158 46.3803 36.9152 47.0908 32.3797 45.4308C32.8739 43.825 34.1871 44.4049 36.1725 44.565C39.7511 44.7786 42.9587 44.2556 45.3292 43.5752C47.383 42.986 50.0809 41.8235 52.1762 40.1694C52.8827 41.7217 53.1325 43.4306 53.1325 43.4306C53.1325 43.4306 53.6796 43.3328 54.137 43.6141C54.5689 43.8799 54.8856 44.4324 54.6693 45.8614C54.2287 48.5306 53.0943 50.6975 51.1872 52.691C50.026 53.9406 48.6171 55.0267 47.0046 55.8169C46.1482 56.2669 45.2368 56.656 44.2732 56.97C37.0839 59.3184 29.7246 56.737 27.3527 51.1937C27.1632 50.7772 27.0032 50.3406 26.8773 49.8846C25.8668 46.2317 26.7246 41.8489 29.4072 39.09C29.5726 38.9145 29.7413 38.7063 29.7413 38.4458C29.7413 38.2282 29.6027 37.9985 29.4828 37.8351C28.544 36.4737 25.2929 34.1541 25.9458 29.6648C26.4146 26.4398 29.2351 24.1684 31.8647 24.303L32.531 24.3412C33.6708 24.4088 34.6645 24.5548 35.6027 24.5943C37.173 24.6626 38.5846 24.4343 40.2573 23.0407C40.8212 22.5706 41.2738 22.1628 42.0392 22.0336C42.1196 22.0195 42.3198 21.9479 42.7196 21.9666C43.1281 21.9887 43.5165 22.1006 43.8654 22.3329C45.206 23.2249 45.3961 25.3858 45.4658 26.9662C45.5053 27.8682 45.6144 30.0512 45.6519 30.678C45.737 32.111 46.114 32.3126 46.8761 32.5637C47.3046 32.705 47.7024 32.8101 48.289 32.9748C50.0635 33.4731 51.1155 33.9786 51.7791 34.6282C52.1749 35.034 52.3591 35.4652 52.416 35.8764C52.6249 37.4032 51.2307 39.2889 47.539 41.0025C43.5037 42.8755 38.608 43.3496 35.2257 42.9726L34.0404 42.8386C31.3351 42.4743 29.7916 45.9705 31.4154 48.3665C32.4621 49.9107 35.3127 50.9151 38.1647 50.9158C44.7037 50.9165 49.7301 48.1241 51.5997 45.7127L51.749 45.4998C51.8414 45.3612 51.7651 45.2848 51.6506 45.3632C50.1231 46.4085 43.3383 50.5582 36.0808 49.3093C36.0808 49.3093 35.1989 49.164 34.394 48.8513C33.7545 48.6022 32.4152 47.9861 32.2525 46.6127C38.1091 48.4241 41.7962 46.7112 41.7962 46.7112ZM9.62738 32.7927C7.59033 33.1885 5.79503 34.3429 4.69749 35.938C4.04125 35.3909 2.81915 34.3315 2.60286 33.9184C0.850411 30.5903 4.51535 24.1202 7.07605 20.466C13.4041 11.4359 23.3148 4.60088 27.9025 5.84105C28.6485 6.05199 31.1188 8.91603 31.1188 8.91603C31.1188 8.91603 26.5324 11.4607 22.2795 15.0077C16.5488 19.42 12.2209 25.8331 9.62738 32.7927ZM13.0499 48.0638C12.7419 48.1167 12.4271 48.1375 12.1097 48.1294C9.04479 48.0471 5.73476 45.2882 5.40597 42.0163C5.04236 38.3996 6.89056 35.6166 10.1624 34.9563C10.5535 34.8773 11.0262 34.8318 11.5358 34.8585C13.3693 34.959 16.0706 36.3666 16.6874 40.3603C17.2338 43.8973 16.3659 47.4986 13.0499 48.0638ZM54.5648 41.6594C54.5387 41.5663 54.3673 40.9415 54.1323 40.1882C53.8972 39.4342 53.6541 38.9045 53.6541 38.9045C54.597 37.4936 54.6137 36.2313 54.4878 35.5168C54.3539 34.6309 53.9849 33.8762 53.2416 33.0954C52.4983 32.3152 50.9776 31.5157 48.8408 30.9157L47.7198 30.6043C47.7144 30.5581 47.6609 27.9612 47.6126 26.8463C47.5772 26.04 47.5082 24.7818 47.1178 23.543C46.6524 21.8655 45.8421 20.3977 44.8303 19.4588C47.6227 16.5647 49.3658 13.3758 49.3611 10.641C49.353 5.38101 42.893 3.78928 34.9317 7.08591L33.2449 7.80176C33.2375 7.79439 30.1953 4.80981 30.1498 4.76963C21.0728 -3.14751 -7.30646 28.3972 1.76648 36.0585L3.74928 37.7387C3.235 39.0712 3.03276 40.598 3.19817 42.2393C3.40977 44.348 4.49727 46.369 6.26043 47.9306C7.93386 49.4131 10.1343 50.352 12.2691 50.35C15.8001 58.4868 23.8679 63.4782 33.3272 63.7595C43.4743 64.0608 51.9921 59.2997 55.5613 50.7471C55.795 50.1471 56.7854 47.4424 56.7854 45.0545C56.7854 42.6551 55.4287 41.6594 54.5648 41.6594Z" fill="#D0D0D0"/>
</svg>
