<svg width="192" height="69" viewBox="0 0 192 69" fill="none" xmlns="http://www.w3.org/2000/svg">
<path d="M38.565 23.7516C31.6235 23.7516 26.1997 29.021 26.1997 36.0752C26.1997 43.1294 31.4865 48.3537 38.565 48.3537C45.6435 48.3537 51.0222 43.0392 51.0222 36.0301C51.0222 29.0661 45.7355 23.7516 38.565 23.7516ZM38.6118 43.27C34.6589 43.27 31.7622 40.1999 31.7622 36.0769C31.7622 31.9072 34.6121 28.8389 38.565 28.8389C42.5647 28.8389 45.4597 31.954 45.4597 36.0769C45.4597 40.1999 42.5647 43.27 38.6118 43.27ZM52.5382 29.1129H55.9861V47.8976H61.5019V24.2095H52.5382V29.1129ZM12.3185 28.8371C15.2151 28.8371 17.5133 30.6237 18.3858 33.2809H24.2241C23.1661 27.6004 18.4777 23.7516 12.3653 23.7516C5.42379 23.7516 0 29.021 0 36.0769C0 43.1329 5.28677 48.3555 12.3653 48.3555C18.3406 48.3555 23.121 44.5067 24.179 38.7793H18.3858C17.5584 41.4366 15.2602 43.27 12.3636 43.27C8.36379 43.27 5.5608 40.1999 5.5608 36.0769C5.56256 31.9072 8.32043 28.8371 12.3185 28.8371ZM157.34 33.7856L153.295 33.1907C151.365 32.9167 149.986 32.2749 149.986 30.7624C149.986 29.1129 151.78 28.289 154.215 28.289C156.881 28.289 158.582 29.4338 158.95 31.3122H164.282C163.684 26.5476 160.006 23.7533 154.354 23.7533C148.515 23.7533 144.654 26.7314 144.654 30.9463C144.654 34.9773 147.183 37.3154 152.284 38.0473L156.329 38.6423C158.307 38.9163 159.41 39.6968 159.41 41.1625C159.41 43.041 157.479 43.8198 154.813 43.8198C151.549 43.8198 149.71 42.4911 149.435 40.4757H144.011C144.517 45.1033 148.148 48.3555 154.766 48.3555C160.789 48.3555 164.787 45.6063 164.787 40.8867C164.787 36.6719 161.892 34.4725 157.34 33.7856ZM58.744 14.4511C56.7216 14.4511 55.2043 15.9168 55.2043 17.9323C55.2043 19.9478 56.72 21.4134 58.744 21.4134C60.7664 21.4134 62.2843 19.9478 62.2843 17.9323C62.2843 15.9168 60.7664 14.4511 58.744 14.4511ZM139.69 32.32C139.69 27.1893 136.565 23.7533 129.946 23.7533C123.694 23.7533 120.201 26.9153 119.511 31.7719H124.981C125.257 29.8934 126.728 28.3358 129.854 28.3358C132.659 28.3358 134.037 29.5725 134.037 31.085C134.037 33.0554 131.508 33.5584 128.383 33.8793C124.154 34.3372 118.914 35.8029 118.914 41.3013C118.914 45.563 122.086 48.3104 127.143 48.3104C131.095 48.3104 133.578 46.6609 134.82 44.0487C135.004 46.3851 136.75 47.8976 139.187 47.8976H142.405V42.9959H139.692V32.32H139.69ZM134.266 38.2763C134.266 41.4383 131.508 43.7746 128.152 43.7746C126.083 43.7746 124.337 42.9039 124.337 41.0723C124.337 38.7359 127.141 38.0942 129.715 37.8201C132.197 37.5912 133.576 37.0413 134.266 35.9868V38.2763ZM104.986 23.7516C101.906 23.7516 99.3317 25.0351 97.4933 27.1876V14.2222H91.9776V47.8976H97.4011V44.7824C99.2395 47.0269 101.861 48.3555 104.986 48.3555C111.605 48.3555 116.616 43.1329 116.616 36.0769C116.616 29.021 111.513 23.7516 104.986 23.7516ZM104.159 43.27C100.206 43.27 97.3093 40.1999 97.3093 36.0769C97.3093 31.954 100.251 28.8389 104.204 28.8389C108.204 28.8389 111.006 31.9089 111.006 36.0769C111.006 40.1999 108.111 43.27 104.159 43.27ZM78.7845 23.7516C75.1995 23.7516 72.8544 25.2172 71.4757 27.2795V24.2095H66.0048V47.8959H71.5205V35.0224C71.5205 31.4024 73.8187 28.8371 77.2203 28.8371C80.3925 28.8371 82.368 31.0816 82.368 34.3355V47.8976H87.8837V33.9244C87.8859 27.9664 84.8069 23.7516 78.7845 23.7516ZM191.08 35.2982C191.08 28.518 186.116 23.7533 179.45 23.7533C172.372 23.7533 167.177 29.0678 167.177 36.0769C167.177 43.4538 172.739 48.3555 179.542 48.3555C185.289 48.3555 189.793 44.9646 190.941 40.1548H185.195C184.367 42.2622 182.345 43.4538 179.633 43.4538C176.092 43.4538 173.426 41.2544 172.829 37.4056H191.078V35.2982H191.08ZM173.152 33.4648C174.027 30.1657 176.508 28.5631 179.358 28.5631C182.484 28.5631 184.874 30.3496 185.426 33.4648H173.152Z" fill="#D0D0D0"/>
</svg>
