<svg width="198" height="68" viewBox="0 0 198 68" fill="none" xmlns="http://www.w3.org/2000/svg">
<path d="M195.962 25.5363C195.962 24.7772 195.429 24.2712 194.551 24.2712L192.826 24.3028L192.857 28.1615H193.798V26.8331H194.362L195.178 28.1615H196.275L195.303 26.675C195.504 26.5624 195.671 26.3972 195.787 26.1968C195.903 25.9965 195.963 25.7683 195.962 25.5363ZM194.362 26.0424H193.767V25.0619H194.457C194.581 25.0482 194.705 25.0832 194.805 25.1598C194.904 25.2364 194.97 25.3486 194.99 25.4731V25.5047C194.987 25.5829 194.969 25.6597 194.935 25.7302C194.901 25.8006 194.853 25.8632 194.794 25.9139C194.735 25.9646 194.666 26.0022 194.592 26.0243C194.518 26.0464 194.439 26.0526 194.362 26.0424V26.0424ZM55.2768 43.3749C53.6778 43.3749 52.5804 42.1097 52.5804 40.2437V31.7355H59.1647V25.7261H52.5961L52.5334 18.831H45.2593L45.322 41.7935C45.322 46.4429 48.3947 49.6057 52.9096 49.6057C55.2925 49.6057 57.55 49.2578 59.3371 48.4355V42.5842C58.068 43.1783 56.674 43.4498 55.2768 43.3749V43.3749ZM72.6469 25.3466C65.8744 25.3466 60.6697 30.6602 60.6697 37.7134C60.6697 44.7033 65.8744 49.5741 73.0545 49.5741C77.0991 49.5741 80.8929 48.1192 83.2131 45.1145L77.6321 42.5526C76.5034 43.5963 74.7789 44.0075 73.2426 44.0075C70.7343 44.0075 68.226 42.7107 67.8811 40.0539H84.53C84.7802 39.1046 84.9067 38.1264 84.9062 37.144C84.9062 29.9011 79.6701 25.3466 72.6625 25.3466H72.6469ZM67.8811 35.4045C68.1005 32.2416 70.358 30.7867 72.835 30.7867C75.6255 30.7867 77.7262 32.3681 77.7262 35.0882V35.4045H67.8811ZM38.3458 43.3749C36.7467 43.3749 35.6493 42.1097 35.6493 40.2437V31.7355H42.2336V25.7261H35.665L35.6023 18.831H28.3282L28.3909 41.7935C28.3909 46.4429 31.4636 49.6057 35.9785 49.6057C38.3614 49.6057 40.6189 49.2578 42.4061 48.4355V42.5842C41.1379 43.1812 39.7431 43.4528 38.3458 43.3749V43.3749ZM12.7924 25.3466C6.55295 25.3466 0 29.4899 0 37.8399C0 44.7982 4.64037 49.669 10.5035 49.669C13.8584 49.669 16.3981 48.309 18.0598 45.9052L18.2793 49.2578H25.3182V38.1245C25.3182 29.6481 19.1258 25.3466 12.7924 25.3466V25.3466ZM12.7924 43.2484C9.62563 43.2484 7.3368 40.8762 7.3368 37.5236C7.3368 34.171 9.59428 31.7988 12.7924 31.7988C15.7396 31.7988 18.1852 34.3924 18.1852 37.5236C18.1852 40.6548 15.7396 43.2484 12.7924 43.2484V43.2484ZM194.206 22.5316C191.917 22.5632 190.443 24.0498 190.475 26.2638C190.506 28.4778 192.011 29.9327 194.3 29.9011C196.526 29.8695 198.031 28.3829 198 26.1373C197.968 23.8916 196.463 22.5 194.206 22.5316V22.5316ZM194.3 29.2685C192.513 29.3001 191.29 28.0983 191.29 26.2638C191.29 24.4293 192.45 23.1958 194.237 23.1642C196.024 23.1325 197.216 24.3344 197.247 26.2005C197.247 28.0034 196.056 29.2369 194.315 29.2685H194.3ZM158.65 25.7577L153.571 40.6232L148.429 25.7577H140.528L149.997 49.2262H157.083L166.552 25.7577H158.65ZM177.494 25.3466C170.722 25.3466 165.517 30.6602 165.517 37.7134C165.517 44.7033 170.722 49.5741 177.902 49.5741C181.946 49.5741 185.74 48.1192 188.06 45.1145L182.479 42.5526C181.351 43.5963 179.626 44.0075 178.09 44.0075C175.582 44.0075 173.073 42.7107 172.728 40.0539H189.377C189.627 39.1046 189.754 38.1264 189.753 37.144C189.753 29.9011 184.517 25.3466 177.494 25.3466ZM182.573 35.4045H172.728C172.948 32.2416 175.205 30.7867 177.682 30.7867C180.473 30.7867 182.573 32.3681 182.573 35.0882V35.4045ZM134.916 15.4468C132.345 15.4468 130.401 17.1864 130.401 19.6218C130.401 22.0572 132.345 23.86 134.916 23.86C137.487 23.86 139.431 22.0888 139.431 19.6218C139.431 17.1547 137.518 15.4468 134.916 15.4468V15.4468ZM101.9 25.3149C100.43 25.291 98.9787 25.6512 97.6876 26.3607C96.3964 27.0701 95.3093 28.1045 94.5318 29.3634L94.281 25.7577H87.2577V49.2262H94.5318V36.9226C94.6886 33.9812 97.0401 31.7355 99.6112 31.7355C102.496 31.7355 103.813 33.9179 103.813 36.6696V49.1946H111.055V35.531C111.055 29.5848 107.465 25.3149 101.9 25.3149V25.3149ZM124.099 43.3749C122.499 43.3749 121.402 42.1097 121.402 40.2437V31.7355H127.986V25.7261H121.402L121.339 18.831H114.065L114.128 41.7935C114.128 46.4429 117.201 49.6057 121.716 49.6057C124.099 49.6057 126.356 49.2578 128.143 48.4355V42.5842C126.88 43.1786 125.491 43.4502 124.099 43.3749V43.3749ZM131.247 25.7577V49.2262H138.584V25.7577C137.496 26.4848 136.22 26.8726 134.916 26.8726C133.611 26.8726 132.335 26.4848 131.247 25.7577V25.7577Z" fill="#D0D0D0"/>
</svg>
