<svg width="165" height="40" viewBox="0 0 165 40" fill="none" xmlns="http://www.w3.org/2000/svg">
<path d="M56.4313 2.68729H64.774L77.3129 37.6221H69.4638L67.4892 32.1323H53.7162L51.7416 37.6221H43.8924L56.4313 2.68729ZM56.4313 24.6463H64.774L60.578 13.0679L56.4313 24.6463Z" fill="white"/>
<path d="M81.229 37.6221V2.68729H101.765V10.1733H88.6338V15.164H99.3955V22.65H88.6338V37.6221H81.229Z" fill="white"/>
<path d="M105.237 37.6221V2.68729H125.773V10.1733H112.642V15.164H123.403V22.65H112.642V37.6221H105.237Z" fill="white"/>
<path d="M129.245 37.6221V2.68729H151.262V10.1733H136.649V15.164H147.905V22.65H136.649V30.1361H151.262V37.6221H129.245Z" fill="white"/>
<path d="M157.416 37.6221V2.68729H164.821V37.6221H157.416Z" fill="white"/>
<path d="M32.0533 2.04444L23.707 14.4444C23.1299 15.2889 24.2397 16.3111 25.0388 15.6L33.2519 8.44444C33.4739 8.26667 33.7847 8.4 33.7847 8.71111V31.0667C33.7847 31.3778 33.3851 31.5111 33.2075 31.2889L8.34628 1.51111C7.54717 0.533333 6.3929 0 5.10544 0H4.21754C1.90899 0 0 1.91111 0 4.26667V35.7333C0 38.0889 1.90899 40 4.26193 40C5.72697 40 7.10322 39.2444 7.90233 37.9556L16.2486 25.5556C16.8257 24.7111 15.7159 23.6889 14.9168 24.4L6.70366 31.5111C6.48169 31.6889 6.17092 31.5556 6.17092 31.2444V8.93333C6.17092 8.62222 6.57048 8.48889 6.74806 8.71111L31.6093 38.4889C32.4084 39.4667 33.6071 40 34.8502 40H35.7381C38.091 40 40 38.0889 40 35.7333V4.26667C40 1.91111 38.091 0 35.7381 0C34.2286 0 32.8524 0.755555 32.0533 2.04444Z" fill="url(#paint0_linear_415_5243)"/>
<defs>
<linearGradient id="paint0_linear_415_5243" x1="-0.985222" y1="4.72343e-06" x2="42.4592" y2="4.04257" gradientUnits="userSpaceOnUse">
<stop stop-color="#EBA948"/>
<stop offset="1" stop-color="#FD7237"/>
</linearGradient>
</defs>
</svg>
