<svg width="213" height="66" viewBox="0 0 213 66" fill="none" xmlns="http://www.w3.org/2000/svg">
<path d="M17.4507 35.7609C17.4507 32.2021 14.774 29.7009 11.486 29.7009C8.19805 29.7009 5.52134 32.2442 5.52134 35.7609C5.52134 39.2354 8.19805 41.821 11.486 41.821C14.7773 41.8177 17.4507 39.3197 17.4507 35.7609ZM17.4977 46.3531V43.5987C15.8755 45.5064 13.4608 46.6904 10.5691 46.6904C4.56081 46.6904 0 42.0286 0 35.7609C0 29.5321 4.73546 24.7892 10.7035 24.7892C13.5112 24.7892 15.879 25.9765 17.501 27.8387V25.1687H22.8948V46.3531H17.4977Z" fill="#D0D0D0"/>
<path d="M49.094 41.6491C47.2065 41.6491 46.6826 40.9709 46.6826 39.1932V29.7883H50.1485V25.1687H46.6826V20.0008H41.1546V25.1687H34.0346V23.8808C34.0346 22.0998 34.7366 21.4217 36.6677 21.4217H37.8801V17.3114H35.2202C30.6593 17.3114 28.5099 18.7518 28.5099 23.1574V25.1655H25.4403V29.7852H28.5099V46.3498H34.038V29.7852H41.1579V40.1664C41.1579 44.4876 42.8674 46.3531 47.3409 46.3531H50.1922V41.6491H49.094Z" fill="#D0D0D0"/>
<path d="M68.9194 33.8533C68.5264 31.0989 66.199 29.4476 63.482 29.4476C60.7616 29.4476 58.5249 31.0568 57.9573 33.8533H68.9194ZM57.9103 37.159C58.3066 40.2929 60.6306 42.074 63.5693 42.074C65.8934 42.074 67.6936 41.013 68.7447 39.3196H74.4037C73.0872 43.8095 68.9194 46.6904 63.4384 46.6904C56.8154 46.6904 52.1673 42.2004 52.1673 35.8029C52.1673 29.4055 57.0808 24.7858 63.5726 24.7858C70.1083 24.7858 74.8438 29.4478 74.8438 35.8029C74.8438 36.2702 74.8001 36.7341 74.7127 37.159H57.9103Z" fill="#D0D0D0"/>
<path d="M109.99 35.7609C109.99 32.3285 107.314 29.7009 104.025 29.7009C100.738 29.7009 98.0608 32.2442 98.0608 35.7609C98.0608 39.2354 100.738 41.821 104.025 41.821C107.314 41.8177 109.99 39.1932 109.99 35.7609ZM92.6201 25.1687H98.0138V27.923C99.6359 25.9733 102.047 24.7892 104.942 24.7892C110.863 24.7892 115.512 29.4932 115.512 35.7187C115.512 41.9475 110.776 46.6936 104.811 46.6936C102.047 46.6936 99.767 45.6328 98.1885 43.8551V55.0701H92.6201V25.1687Z" fill="#D0D0D0"/>
<path d="M134.954 35.7609C134.954 32.2021 132.28 29.7009 128.989 29.7009C125.701 29.7009 123.024 32.2442 123.024 35.7609C123.024 39.2354 125.701 41.821 128.989 41.821C132.28 41.8177 134.954 39.3197 134.954 35.7609ZM135.001 46.3531V43.5987C133.379 45.5064 130.963 46.6904 128.072 46.6904C122.064 46.6904 117.503 42.0286 117.503 35.7609C117.503 29.5321 122.239 24.7892 128.203 24.7892C131.011 24.7892 133.379 25.9765 135.001 27.8387V25.1687H140.395V46.3531H135.001Z" fill="#D0D0D0"/>
<path d="M82.8972 27.245C82.8972 27.245 84.2709 24.7892 87.6327 24.7892C89.0701 24.7892 90.0005 25.2661 90.0005 25.2661V30.6708C90.0005 30.6708 87.9719 29.4607 86.1079 29.7041C84.244 29.9474 83.0652 31.6019 83.0719 33.8144V46.3563H77.5036V25.172H82.8972V27.245Z" fill="#D0D0D0"/>
<path d="M165.586 25.1687L151.967 55.0019H146.225L151.571 43.4689L142.531 25.1687H149.04L154.329 37.3959L159.756 25.1687H165.586Z" fill="#D0D0D0"/>
<path d="M209.059 24.6886L195.558 17.1621C191.595 14.9529 186.641 17.7137 186.641 22.1354V22.9075C186.641 23.605 187.027 24.2506 187.652 24.5977L190.201 26.0187C190.949 26.4372 191.883 25.9149 191.883 25.0811V23.1606C191.883 22.2003 192.959 21.6002 193.818 22.0803L205.512 28.601C206.373 29.0812 206.373 30.2815 205.512 30.7584L193.818 37.2792C192.959 37.7593 191.883 37.1591 191.883 36.1988V35.1769C191.883 30.7551 186.93 27.9911 182.964 30.2036L169.463 37.7301C165.499 39.9394 165.499 45.4674 169.463 47.6766L182.964 55.2031C186.926 57.4123 191.883 54.6515 191.883 50.2298V49.4577C191.883 48.7601 191.497 48.1178 190.873 47.7674L188.323 46.3432C187.575 45.9248 186.641 46.4471 186.641 47.2809V49.2014C186.641 50.1617 185.567 50.7618 184.706 50.2817L173.012 43.7609C172.153 43.2808 172.153 42.0805 173.012 41.6004L184.706 35.0795C185.567 34.5994 186.641 35.1996 186.641 36.1599V37.1818C186.641 41.6036 191.595 44.3676 195.558 42.1551L209.059 34.6286C213.022 32.4258 213.022 26.8978 209.059 24.6886Z" fill="#D0D0D0"/>
</svg>
