<svg width="210" height="66" viewBox="0 0 210 66" fill="none" xmlns="http://www.w3.org/2000/svg">
<g clip-path="url(#clip0_201_8638)">
<path d="M179.847 31.4812V48.0231H185.134V36.9952H204.471V48.0231H209.758V31.4812H179.847ZM184.53 26.1182H204.924C207.794 25.5895 209.834 23.0213 210.438 20.6042H179.016C179.62 23.0213 181.735 25.514 184.53 26.1182ZM163.758 48.0231C166.402 46.8901 167.837 44.9262 168.441 42.6602H144.648V20.6798H139.285V48.0231H163.758ZM99.6295 26.0427H118.513C121.383 25.2118 123.725 23.0213 124.329 20.6798H94.4177V36.8441H118.891V42.5092H99.7051C96.6837 43.34 94.1156 45.3794 92.8315 48.0231H124.178V31.4812H99.7051L99.6295 26.0427ZM53.1005 26.1182H73.4947C76.365 25.5895 78.48 23.0213 79.0087 20.6042H47.511C48.1153 23.0213 50.2302 25.514 53.1005 26.1182ZM53.1005 36.9196H73.4947C76.365 36.3909 78.48 33.8227 79.0087 31.4056H47.511C48.1153 33.8227 50.2302 36.3154 53.1005 36.9196ZM53.1005 48.0231H73.4947C76.365 47.4944 78.48 44.9262 79.0087 42.5092H47.511C48.1153 44.9262 50.2302 47.4944 53.1005 48.0231Z" fill="#D0D0D0"/>
<path d="M0 20.6798C0.604273 23.0969 2.71923 25.514 5.51399 26.1182H14.1249L14.5781 26.2693V47.9476H19.941V26.2693L20.3942 26.1182H29.0051C31.8754 25.3629 33.9148 23.0969 34.5191 20.6798V20.6042L0 20.6798Z" fill="#D0D0D0"/>
</g>
<defs>
<clipPath id="clip0_201_8638">
<rect width="210" height="65.8823" fill="white"/>
</clipPath>
</defs>
</svg>
