<svg width="246" height="63" viewBox="0 0 246 63" fill="none" xmlns="http://www.w3.org/2000/svg">
<path d="M78.8389 40.4531C75.2768 40.4531 73.1886 37.669 73.1886 34.5161C73.1886 30.8721 75.5634 28.4563 78.8389 28.4563C80.5587 28.4563 81.7052 29.1524 82.7697 29.8075L84.4893 26.7367C83.2611 25.9587 81.2138 25.017 79.0437 25.017C73.3933 25.017 69.3398 29.0295 69.3398 34.5161C69.3398 39.9618 73.4752 44.0154 79.0437 44.0154C81.4185 44.0154 83.1382 43.0327 84.4893 42.2138L82.7697 39.143C81.7052 39.8799 80.1083 40.4531 78.8389 40.4531ZM90.9177 16.6232H94.5618V43.5241H90.9177V16.6232ZM115.566 25.5902L115.157 27.1462C114.174 26.0816 112.086 25.017 109.875 25.017C105.371 25.017 101.236 28.5791 101.236 34.3933C101.236 40.4122 105.371 44.0564 109.875 44.0564C112.086 44.0564 114.093 42.9918 115.157 41.9272L115.566 43.565H118.637V25.7131H115.566V25.5902ZM115.239 34.639C115.239 38.7336 112.741 40.576 110.367 40.576C107.951 40.576 105.167 38.9383 105.167 34.4343C105.167 31.5682 106.682 28.4973 110.08 28.4973C112.659 28.4973 115.239 30.5855 115.239 34.4343V34.639ZM131.658 36.0721C134.155 36.7272 135.22 37.2186 135.22 38.4879C135.22 39.4706 134.36 40.4941 132.354 40.4941C130.511 40.4941 128.996 39.8391 127.563 39.0611L125.926 42.1319C127.195 42.9099 130.02 43.9745 132.354 43.9745C136.367 43.9745 138.7 41.2721 138.7 38.5288C138.7 33.8201 134.074 33.0832 132.845 32.6737C130.266 31.9776 129.611 31.4453 129.611 30.3808C129.611 29.2343 130.593 28.4563 132.477 28.4563C134.115 28.4563 135.343 28.9477 136.49 29.5209L138.209 26.4501C136.571 25.754 134.647 25.017 132.477 25.017C128.546 25.017 126.171 27.8012 126.171 30.3808C126.171 34.5161 129.652 35.5807 131.658 36.0721ZM151.188 36.0721C153.686 36.7272 154.75 37.2186 154.75 38.4879C154.75 39.4706 153.891 40.4941 151.884 40.4941C150.041 40.4941 148.527 39.8391 147.094 39.0611L145.456 42.1319C146.725 42.9099 149.551 43.9745 151.884 43.9745C155.897 43.9745 158.231 41.2721 158.231 38.5288C158.231 33.8201 153.605 33.0832 152.376 32.6737C149.796 31.9776 149.141 31.4453 149.141 30.3808C149.141 29.2343 150.124 28.4563 152.007 28.4563C153.645 28.4563 154.874 28.9477 156.021 29.5209L157.74 26.4501C156.102 25.754 154.178 25.017 152.007 25.017C148.077 25.017 145.701 27.8012 145.701 30.3808C145.661 34.5161 149.182 35.5807 151.188 36.0721ZM174.035 25.017C171.825 25.017 169.819 26.0816 168.754 27.1462L168.345 25.5083H165.274V50.9351H168.712V42.091L168.836 42.0091C169.819 43.0737 171.825 43.9335 173.749 43.9335C178.375 43.9335 182.675 40.9445 182.675 34.2705C182.757 28.2925 178.622 25.017 174.035 25.017ZM173.626 40.576C171.252 40.576 168.754 38.7336 168.754 34.639V34.4343C168.754 30.5036 171.333 28.4973 173.913 28.4973C177.352 28.4973 178.827 31.5682 178.827 34.4343C178.827 38.9383 176.042 40.576 173.626 40.576ZM203.066 25.5902L202.657 27.2281C201.674 26.1635 199.586 25.0989 197.374 25.0989C192.87 25.0989 188.735 28.661 188.735 34.4752C188.735 40.4941 192.87 44.1383 197.374 44.1383C199.586 44.1383 201.591 43.0737 202.657 42.0091L203.066 43.6469H206.137V25.795H203.066V25.5902ZM202.697 34.639C202.697 38.7336 200.2 40.576 197.825 40.576C195.409 40.576 192.625 38.9383 192.625 34.4343C192.625 31.5682 194.14 28.4973 197.539 28.4973C200.117 28.4973 202.697 30.5855 202.697 34.4343V34.639ZM219.157 36.0721C221.655 36.7272 222.719 37.2186 222.719 38.4879C222.719 39.4706 221.859 40.4941 219.853 40.4941C218.01 40.4941 216.496 39.8391 215.063 39.0611L213.425 42.1319C214.694 42.9099 217.519 43.9745 219.853 43.9745C223.866 43.9745 226.199 41.2721 226.199 38.5288C226.199 33.8201 221.573 33.0832 220.345 32.6737C217.765 31.9776 217.11 31.4453 217.11 30.3808C217.11 29.2343 218.093 28.4563 219.976 28.4563C221.614 28.4563 222.842 28.9477 223.989 29.5209L225.708 26.4501C224.071 25.754 222.147 25.017 219.976 25.017C216.045 25.017 213.67 27.8012 213.67 30.3808C213.629 34.5161 217.15 35.5807 219.157 36.0721ZM238.647 36.0721C241.144 36.7272 242.209 37.2186 242.209 38.4879C242.209 39.4706 241.349 40.4941 239.343 40.4941C237.5 40.4941 235.986 39.8391 234.552 39.0611L232.915 42.1319C234.184 42.9099 237.009 43.9745 239.343 43.9745C243.356 43.9745 245.689 41.2721 245.689 38.5288C245.689 33.8201 241.063 33.0832 239.835 32.6737C237.255 31.9776 236.6 31.4453 236.6 30.3808C236.6 29.2343 237.583 28.4563 239.466 28.4563C241.104 28.4563 242.332 28.9477 243.478 29.5209L245.198 26.4501C243.56 25.754 241.635 25.017 239.466 25.017C235.535 25.017 233.16 27.8012 233.16 30.3808C233.16 34.5161 236.681 35.5807 238.647 36.0721Z" fill="#D0D0D0"/>
<path d="M38.0944 10.9326H31.5023C30.3559 10.9326 29.2095 11.7923 29.0866 12.9388L28.1039 17.6476C27.9811 18.5073 27.2441 19.0806 26.3842 19.0806H19.0961C9.22836 19.2034 0.0976562 26.6554 0.0976562 37.2191C0.0976562 46.6365 7.95907 55.235 19.2599 55.235H26.7118C27.8583 55.235 29.0047 54.3751 29.1276 53.2287L30.1103 48.52C30.2331 47.6602 30.9701 47.0869 31.8299 47.0869H38.2582C49.2725 47.0869 57.4204 38.6522 57.4204 29.0712C57.2566 18.5073 48.2488 10.9326 38.0944 10.9326ZM37.9306 40.0853H30.1922C29.0457 40.0853 28.063 40.9452 27.7764 42.0917L26.7937 46.6775C26.6708 47.5373 25.9338 48.1106 25.0741 48.1106H19.3417C13.4866 48.1106 7.18112 43.975 7.18112 37.0963C7.18112 30.7908 12.7496 26.0821 19.3417 26.0821H28.1858C29.3323 26.0821 30.315 25.2223 30.6016 24.0759L31.5842 19.49C31.707 18.6302 32.444 18.0569 33.3039 18.0569H37.8897C44.0314 18.0569 50.0503 22.3562 50.0503 29.0712C49.9684 35.2129 44.6866 40.0853 37.9306 40.0853Z" fill="#D0D0D0"/>
</svg>
