<svg width="200" height="68" viewBox="0 0 200 68" fill="none" xmlns="http://www.w3.org/2000/svg">
<path d="M74.4225 17.8623H63.4082C62.6545 17.8623 62.0135 18.4099 61.8959 19.1539L57.4413 47.3975C57.3527 47.9547 57.7843 48.4572 58.3496 48.4572H63.6079C64.3616 48.4572 65.0026 47.9096 65.1202 47.1639L66.3216 39.5462C66.4376 38.8006 67.0801 38.253 67.8323 38.253H71.319C78.5743 38.253 82.7617 34.7421 83.8552 27.7847C84.348 24.7408 83.8761 22.3492 82.4508 20.6743C80.8854 18.8351 78.1089 17.8623 74.4225 17.8623ZM75.6931 28.1776C75.0908 32.1298 72.0711 32.1298 69.1513 32.1298H67.4892L68.6552 24.7488C68.7245 24.3027 69.111 23.9742 69.5619 23.9742H70.3237C72.3127 23.9742 74.1889 23.9742 75.1585 25.108C75.7366 25.7844 75.9138 26.7894 75.6931 28.1776Z" fill="#D0D0D0"/>
<path d="M107.346 28.0504H102.072C101.623 28.0504 101.234 28.3789 101.165 28.825L100.932 30.3003L100.563 29.7656C99.421 28.1084 96.8748 27.5543 94.3334 27.5543C88.505 27.5543 83.5269 31.9688 82.5574 38.1612C82.0533 41.2501 82.77 44.2038 84.5222 46.2636C86.1295 48.1576 88.4293 48.9468 91.1656 48.9468C95.8618 48.9468 98.466 45.927 98.466 45.927L98.2309 47.3926C98.1423 47.9531 98.5739 48.4556 99.136 48.4556H103.887C104.642 48.4556 105.28 47.908 105.399 47.1623L108.25 29.1101C108.34 28.5545 107.91 28.0504 107.346 28.0504ZM99.9944 38.3158C99.4855 41.329 97.0939 43.3518 94.0436 43.3518C92.512 43.3518 91.288 42.8606 90.502 41.9298C89.7226 41.0053 89.4262 39.6895 89.6742 38.224C90.1493 35.2365 92.5812 33.1476 95.5848 33.1476C97.0826 33.1476 98.3001 33.6453 99.1022 34.5842C99.9058 35.5328 100.225 36.8567 99.9944 38.3158Z" fill="#D0D0D0"/>
<path d="M135.437 28.0503H130.137C129.631 28.0503 129.156 28.3015 128.869 28.7219L121.559 39.4898L118.46 29.1422C118.266 28.4948 117.668 28.0503 116.992 28.0503H111.783C111.15 28.0503 110.711 28.6687 110.912 29.2646L116.75 46.3972L111.261 54.1454C110.83 54.7558 111.265 55.5949 112.01 55.5949H117.304C117.807 55.5949 118.277 55.3501 118.562 54.9378L136.191 29.4917C136.612 28.8829 136.179 28.0503 135.437 28.0503Z" fill="#D0D0D0"/>
<path d="M152.985 17.8623H141.969C141.217 17.8623 140.576 18.4099 140.458 19.1539L136.004 47.3974C135.915 47.9547 136.347 48.4571 136.909 48.4571H142.562C143.087 48.4571 143.536 48.0738 143.618 47.552L144.883 39.5462C144.998 38.8005 145.641 38.253 146.393 38.253H149.878C157.135 38.253 161.321 34.7421 162.416 27.7847C162.911 24.7408 162.435 22.3492 161.01 20.6743C159.446 18.8351 156.671 17.8623 152.985 17.8623ZM154.256 28.1776C153.655 32.1298 150.635 32.1298 147.714 32.1298H146.053L147.221 24.7488C147.29 24.3027 147.674 23.9742 148.126 23.9742H148.888C150.875 23.9742 152.753 23.9742 153.723 25.108C154.301 25.7844 154.476 26.7894 154.256 28.1776Z" fill="#D0D0D0"/>
<path d="M185.907 28.0504H180.636C180.183 28.0504 179.798 28.3789 179.731 28.825L179.497 30.3003L179.127 29.7656C177.985 28.1083 175.44 27.5543 172.899 27.5543C167.071 27.5543 162.094 31.9687 161.125 38.1611C160.622 41.2501 161.336 44.2038 163.088 46.2636C164.698 48.1576 166.995 48.9467 169.731 48.9467C174.427 48.9467 177.032 45.927 177.032 45.927L176.796 47.3926C176.708 47.953 177.14 48.4555 177.705 48.4555H182.454C183.206 48.4555 183.847 47.9079 183.965 47.1623L186.817 29.1101C186.904 28.5545 186.472 28.0504 185.907 28.0504ZM178.555 38.3158C178.049 41.329 175.655 43.3518 172.604 43.3518C171.076 43.3518 169.849 42.8606 169.063 41.9297C168.283 41.0053 167.99 39.6895 168.235 38.224C168.713 35.2365 171.142 33.1476 174.146 33.1476C175.643 33.1476 176.861 33.6453 177.663 34.5842C178.47 35.5328 178.789 36.8566 178.555 38.3158Z" fill="#D0D0D0"/>
<path d="M192.125 18.6369L187.605 47.3973C187.516 47.9546 187.948 48.4571 188.51 48.4571H193.054C193.81 48.4571 194.451 47.9095 194.567 47.1638L199.025 18.9219C199.113 18.3647 198.682 17.8606 198.12 17.8606H193.03C192.581 17.8622 192.194 18.1907 192.125 18.6369Z" fill="#D0D0D0"/>
<path d="M11.7022 53.946L12.5445 48.5958L10.6683 48.5524H1.70898L7.93522 9.07395C7.95454 8.95477 8.01735 8.84365 8.10915 8.76473C8.20095 8.68582 8.31852 8.64233 8.44092 8.64233H23.5475C28.5626 8.64233 32.0236 9.68594 33.8306 11.7458C34.6777 12.7121 35.2172 13.7219 35.4781 14.8331C35.7519 15.9991 35.7568 17.3922 35.4894 19.0913L35.4701 19.2153V20.304L36.3172 20.784C37.0307 21.1624 37.5976 21.5957 38.0324 22.0917C38.7571 22.9179 39.2258 23.9679 39.4239 25.2129C39.6284 26.4932 39.5608 28.0168 39.2258 29.7416C38.8393 31.7258 38.2144 33.4538 37.3705 34.8679C36.5942 36.1708 35.6054 37.2514 34.4313 38.0889C33.3104 38.8845 31.9785 39.4884 30.4727 39.8749C29.0136 40.255 27.3499 40.4467 25.5252 40.4467H24.3495C23.5088 40.4467 22.6923 40.7494 22.0513 41.2922C21.4087 41.8462 20.9836 42.6031 20.8531 43.4309L20.7645 43.9125L19.2764 53.342L19.2088 53.6883C19.1911 53.7978 19.1605 53.8525 19.1154 53.8896C19.0751 53.9234 19.0171 53.946 18.9608 53.946H11.7022Z" fill="#D0D0D0"/>
<path d="M37.1195 19.3408C37.0744 19.6291 37.0228 19.9238 36.9648 20.2266C34.9726 30.455 28.157 33.9884 19.4522 33.9884H15.02C13.9555 33.9884 13.0584 34.7615 12.8926 35.8115L10.6233 50.203L9.98075 54.2825C9.87285 54.9718 10.4043 55.5934 11.1001 55.5934H18.961C19.8918 55.5934 20.6826 54.917 20.8291 53.999L20.9065 53.5996L22.3865 44.2071L22.4815 43.6917C22.6265 42.7705 23.4188 42.0941 24.3497 42.0941H25.5254C33.1415 42.0941 39.1036 39.0019 40.8462 30.0539C41.5741 26.3159 41.1973 23.1948 39.2711 20.9996C38.6881 20.3377 37.965 19.7885 37.1195 19.3408Z" fill="#D0D0D0"/>
<path d="M35.0355 18.5097C34.7311 18.4212 34.417 18.3406 34.0949 18.2682C33.7712 18.1973 33.4395 18.1345 33.098 18.0797C31.903 17.8865 30.5937 17.7947 29.1909 17.7947H17.3505C17.059 17.7947 16.782 17.8607 16.5339 17.9799C15.988 18.2424 15.5821 18.7594 15.4839 19.3923L12.9651 35.346L12.8926 35.8115C13.0585 34.7614 13.9555 33.9884 15.0201 33.9884H19.4522C28.157 33.9884 34.9727 30.4533 36.9649 20.2265C37.0245 19.9238 37.0744 19.629 37.1195 19.3408C36.6154 19.0734 36.0694 18.8447 35.4816 18.6499C35.3366 18.6015 35.1869 18.5548 35.0355 18.5097Z" fill="#D0D0D0"/>
<path d="M15.4834 19.3922C15.5817 18.7593 15.9875 18.2423 16.5335 17.9814C16.7831 17.8623 17.0585 17.7962 17.35 17.7962H29.1905C30.5933 17.7962 31.9026 17.888 33.0976 18.0813C33.439 18.136 33.7708 18.1989 34.0945 18.2697C34.4166 18.3422 34.7307 18.4227 35.035 18.5113C35.1864 18.5564 35.3362 18.6031 35.4828 18.6498C36.0706 18.8447 36.6166 19.075 37.1207 19.3407C37.7133 15.5608 37.1158 12.9872 35.0721 10.6568C32.819 8.09129 28.7524 6.99292 23.5489 6.99292H8.44228C7.37935 6.99292 6.47263 7.76596 6.30836 8.81763L0.0160871 48.7019C-0.107922 49.4911 0.500851 50.2029 1.29644 50.2029H10.6229L12.9646 35.346L15.4834 19.3922Z" fill="#D0D0D0"/>
</svg>
