<svg width="218" height="65" viewBox="0 0 218 65" fill="none" xmlns="http://www.w3.org/2000/svg">
<path d="M14.0126 20.1074L12.2012 26.7748L22.5697 20.0695L15.7885 45.3704L22.6755 45.3761L32.6933 8.00562" fill="#D0D0D0"/>
<path d="M2.85236 34.7397L0 45.3762H14.1157L19.8918 23.7385L2.85236 34.7397ZM51.8854 25.3752C51.5403 26.6576 50.8755 27.5996 49.8841 28.2011C48.895 28.8015 47.5067 29.1028 45.7148 29.1028H40.0216L42.0206 21.6499H47.7138C49.5034 21.6499 50.7329 21.9489 51.4 22.5585C52.0671 23.1681 52.2281 24.0997 51.8854 25.3878V25.3752ZM57.7798 25.2268C58.5044 22.5355 58.2054 20.4652 56.8804 19.016C55.5578 17.5784 53.2368 16.8538 49.9244 16.8538H37.2187L29.5702 45.3888H35.7431L38.8255 33.8874H42.874C43.7826 33.8874 44.498 34.0369 45.0201 34.3245C45.5435 34.6235 45.8505 35.1411 45.9449 35.8886L47.0467 45.3888H53.66L52.5881 36.5327C52.3696 34.5545 51.4644 33.3928 49.8737 33.0478C51.9014 32.4612 53.6002 31.4836 54.9689 30.1264C56.328 28.7792 57.299 27.0906 57.7798 25.2383V25.2268ZM72.7846 35.1756C72.2671 37.1078 71.4735 38.5685 70.4004 39.5921C69.3262 40.6157 68.0426 41.1218 66.5451 41.1218C65.02 41.1218 63.986 40.6272 63.4397 39.6266C62.8922 38.626 62.8738 37.1768 63.3822 35.2791C63.8906 33.3813 64.7014 31.8976 65.8171 30.828C66.9327 29.7584 68.237 29.2236 69.7344 29.2236C71.2296 29.2236 72.2533 29.7411 72.7708 30.7682C73.2999 31.7999 73.3114 33.2755 72.7938 35.1963L72.7846 35.1756ZM75.4898 25.0773L74.7169 27.9642C74.3833 26.929 73.7358 26.1009 72.7789 25.4798C71.8197 24.8703 70.6327 24.5597 69.2169 24.5597C67.4802 24.5597 65.8125 25.0083 64.2138 25.9054C62.6151 26.8025 61.2119 28.0677 60.0157 29.7009C58.8196 31.3341 57.9455 33.1858 57.3819 35.2676C56.8298 37.3608 56.7148 39.1896 57.0483 40.7768C57.3934 42.3755 58.118 43.5946 59.2336 44.4457C60.3608 45.3083 61.7984 45.7339 63.5582 45.7339C64.9565 45.741 66.339 45.4385 67.6067 44.8483C68.86 44.283 69.9748 43.4508 70.8731 42.41L70.068 45.4187H76.0372L81.4878 25.0876H75.507L75.4898 25.0773ZM102.938 25.0773H85.5789L84.3655 29.6089H94.466L81.1128 41.1448L79.9719 45.4003H97.8912L99.1046 40.8688H88.2817L101.84 29.1603L102.938 25.0773ZM118.218 35.1411C117.681 37.1423 116.884 38.6467 115.831 39.6266C114.779 40.6157 113.504 41.1103 112.008 41.1103C108.88 41.1103 107.851 39.1206 108.919 35.1411C109.448 33.1628 110.248 31.6757 111.318 30.6739C112.388 29.6687 113.684 29.1672 115.208 29.1672C116.703 29.1672 117.713 29.6652 118.233 30.6681C118.752 31.6688 118.748 33.1605 118.218 35.1388V35.1411ZM121.712 25.8421C120.337 24.9864 118.583 24.5586 116.444 24.5586C114.278 24.5586 112.274 24.9841 110.429 25.8352C108.592 26.681 106.977 27.9436 105.713 29.5226C104.414 31.1213 103.479 32.996 102.905 35.1353C102.341 37.2665 102.272 39.1378 102.709 40.74C103.146 42.3387 104.066 43.5693 105.446 44.4204C106.838 45.2784 108.609 45.7051 110.783 45.7051C112.922 45.7051 114.912 45.275 116.741 44.4193C118.57 43.559 120.134 42.3375 121.433 40.7273C122.733 39.124 123.665 37.2539 124.24 35.1146C124.815 32.9753 124.884 31.1075 124.447 29.5019C124.01 27.9032 123.101 26.6725 121.733 25.8157L121.712 25.8421ZM143.022 30.5083L144.551 24.9761C144.034 24.7115 143.355 24.5735 142.504 24.5735C141.135 24.5735 139.824 24.9117 138.559 25.5972C137.471 26.1791 136.546 27.0003 135.764 28.0286L136.558 25.0497L134.825 25.0566H130.569L125.083 45.3796H131.136L133.983 34.7558C134.397 33.2111 135.142 31.9954 136.217 31.1328C137.287 30.2667 138.621 29.8331 140.231 29.8331C141.221 29.8331 142.141 30.0597 143.015 30.5117L143.022 30.5083ZM159.864 35.2388C159.347 37.1366 158.565 38.5857 157.495 39.5864C156.425 40.5916 155.137 41.0931 153.642 41.0931C152.147 41.0931 151.123 40.587 150.583 39.5749C150.031 38.557 150.019 37.0906 150.537 35.1629C151.054 33.2364 151.848 31.7585 152.941 30.7349C154.033 29.7032 155.321 29.1879 156.817 29.1879C158.289 29.1879 159.278 29.717 159.807 30.7866C160.336 31.8562 160.347 33.3399 159.839 35.2377L159.864 35.2388ZM164.072 25.8755C162.95 24.9784 161.518 24.5298 159.782 24.5298C158.26 24.5298 156.81 24.8749 155.434 25.5719C154.06 26.2677 152.944 27.2166 152.087 28.4173L152.108 28.2793L153.123 25.0474H147.212L145.705 30.6716L145.659 30.8671L139.448 54.0356H145.509L148.638 42.3732C148.948 43.4106 149.581 44.2249 150.547 44.8138C151.513 45.4003 152.706 45.6913 154.124 45.6913C155.884 45.6913 157.563 45.2658 159.156 44.4147C160.755 43.5613 162.135 42.3329 163.308 40.7457C164.481 39.1585 165.352 37.3183 165.907 35.2365C166.471 33.1513 166.586 31.2915 166.264 29.6641C165.936 28.0343 165.21 26.7726 164.09 25.8801L164.072 25.8755ZM184.177 35.156C183.66 37.0767 182.866 38.5489 181.797 39.5611C180.727 40.5801 179.439 41.0873 177.944 41.0873C176.414 41.0873 175.379 40.5927 174.838 39.5921C174.286 38.5915 174.275 37.1423 174.781 35.2446C175.287 33.3468 176.094 31.8631 177.21 30.7935C178.325 29.7239 179.631 29.1902 181.128 29.1902C182.624 29.1902 183.636 29.7078 184.165 30.7314C184.694 31.7585 184.697 33.2341 184.182 35.1595L184.177 35.156ZM186.88 25.052L186.106 27.9388C185.773 26.898 185.129 26.0699 184.174 25.4545C183.208 24.8404 182.023 24.5344 180.608 24.5344C178.872 24.5344 177.195 24.983 175.594 25.8801C173.995 26.7772 172.592 28.0355 171.396 29.6641C170.2 31.2927 169.326 33.149 168.762 35.2308C168.204 37.3206 168.095 39.1528 168.428 40.7469C168.765 42.3341 169.491 43.5601 170.614 44.4158C171.734 45.2669 173.179 45.6971 174.938 45.6971C176.353 45.6971 177.704 45.4026 178.987 44.8115C180.237 44.2436 181.349 43.4104 182.245 42.3697L181.44 45.3808H187.409L192.859 25.0577H186.889L186.88 25.052ZM217.919 25.0589L217.923 25.0531H214.254C214.136 25.0531 214.033 25.0589 213.926 25.0612H212.022L211.045 26.4184L210.803 26.7404L210.7 26.9014L202.965 37.676L201.366 25.0589H195.031L198.24 44.2318L191.155 54.0425H197.47L199.183 51.6123C199.232 51.541 199.275 51.4812 199.333 51.4052L201.334 48.5644L201.392 48.4839L210.355 35.7748L217.911 25.0784L217.923 25.0715H217.919V25.0589Z" fill="#D0D0D0"/>
</svg>
